<svg xmlns="http://www.w3.org/2000/svg" xmlns:xlink="http://www.w3.org/1999/xlink" xml:space="preserve" version="1.1" style="shape-rendering: geometricprecision; text-rendering: geometricprecision; image-rendering: optimizequality;" fill-rule="evenodd" clip-rule="evenodd" width="269" height="216"><rect id="backgroundrect" width="100%" height="100%" x="0" y="0" fill="none" stroke="none" style="" class=""/><defs><style type="text/css">
   
    .fil0 {fill:black}
   
  </style></defs><g class="currentLayer" style=""><title>Layer 1</title><g id="svg_1" class=""><path class="fil0" d="M263.8521385192871,27.087268829345703 c4,5 11,44 -10,55 c22,11 16,7 8,13 c-4,7 -4,22 -4,27 c8,5 17,5 1,11 c10,9 6,42 -1,51 c-5,6 -92,35 -116,32 c-19,-3 -139,-29 -140,-34 l8,-8 c7,-40 -29,-23 5,-40 c-12,-6 -16,-48 -3,-55 c-15,-5 -5,-6 2,-10 c4,-34 -15,-29 -9,-34 c4,-4 88,-37 98,-35 c29,5 146,13 161,27 zm-16,112 c0,0 3,-2 6,1 c4,7 4,33 -3,38 c-9,7 -80,30 -106,30 c6,-9 3,-26 2,-30 c24,-10 75,-26 101,-39 zm-107,69 c-12,-2 -124,-27 -124,-30 c1,-10 1,-21 -4,-29 c41,9 90,23 131,29 c1,4 4,22 -3,30 l0,0 zm-119,-121 c-16,-7 -11,34 -5,38 c10,8 81,31 107,31 c-5,-10 -3,-26 -2,-31 c-25,-10 -75,-26 -100,-38 zm106,68 c11,-2 123,-27 123,-29 c0,-10 -1,-21 6,-29 c-42,9 -91,23 -132,29 c-1,4 -4,21 3,29 l0,0 zm122,-122 c1,0 5,-2 8,1 c4,6 3,33 -3,37 c-10,7 -81,30 -107,30 c6,-9 4,-25 3,-30 c24,-10 74,-26 99,-38 zm-105,68 c-12,-2 -124,-27 -124,-30 c1,-9 1,-20 -5,-28 c42,9 91,22 131,28 c1,5 4,22 -2,30 l0,0 z" id="svg_2"/></g></g></svg>