<svg xmlns="http://www.w3.org/2000/svg" data-name="Layer 1" width="74" height="92" style=""><rect id="backgroundrect" width="100%" height="100%" x="0" y="0" fill="none" stroke="none" style="" class=""/><title>icons_books_2</title><g class="currentLayer" style=""><title>Layer 1</title><path d="M70.6399974822998,0 H6.350000381469727 a6.360000133514404,6.360000133514404 0 0 0 -6.349999904632568,6.349999904632568 V84.62000274658203 h0 s0,0.05999999865889549 0,0.07999999821186066 a7.5,7.5 0 0 0 7.5,7.5 H73.84999656677246 V10.180000305175781 H70.6399974822998 zm-58.47999954223633,2 H68.6399974822998 V77.18000030517578 H12.15999984741211 zM2,79.62000274658203 V6.349999904632568 a4.349999904632568,4.349999904632568 0 0 1 4.349999904632568,-4.349999904632568 H10.15999984741211 V77.18000030517578 H7.5 a7.489999771118164,7.489999771118164 0 0 0 -0.7799999713897705,0 l-0.27000001072883606,0 l-0.49000000953674316,0.07999999821186066 l-0.33000001311302185,0.07999999821186066 l-0.4000000059604645,0.10999999940395355 l-0.36000001430511475,0.12999999523162842 l-0.33000001311302185,0.12999999523162842 l-0.38999998569488525,0.1899999976158142 l-0.25999999046325684,0.12999999523162842 l-0.41999998688697815,0.25999999046325684 l-0.18000000715255737,0.11999999731779099 l-0.46000000834465027,0.3400000035762787 l-0.10000000149011612,0.07999999821186066 c-0.17000000178813934,0.14000000059604645 -0.33000001311302185,0.28999999165534973 -0.47999998927116394,0.4399999976158142 l0,0 zM71.84999656677246,12.180000305175781 V90.18000030517578 H7.5 a5.5,5.5 0 1 1 0,-11 H70.6399974822998 V12.180000305175781 z" id="svg_1" class=""/><rect x="7.469999313354492" y="83.62000274658203" width="61.130001068115234" height="2" id="svg_2" class=""/></g></svg>